<svg width="500" height="194" viewBox="0 0 500 194" xmlns="http://www.w3.org/2000/svg" role="img" aria-label="GitHub language stats: Last 1000 commits · since 2025-12-03">
<rect width="500" height="194" rx="12" fill="#ffffff" stroke="#e1e4e8" stroke-width="1"/>
<style>
@media (prefers-color-scheme: dark) {
  .bg { fill: #161b22; stroke: #30363d; }
  .title { fill: #e6edf3; }
  .legend-name { fill: #e6edf3; }
  .legend-pct { fill: #8b949e; }
  .footer { fill: #8b949e; }
  .track { fill: #21262d; }
}
</style>
<rect class="bg" width="500" height="194" rx="12" fill="#ffffff" stroke="#e1e4e8" stroke-width="1"/>
<text x="24" y="30" font-family="'Segoe UI',system-ui,sans-serif" font-size="13" font-weight="500" fill="#57606a" class="title">📊 GitHub Stats · Last 1000 commits · since 2025-12-03</text>
<rect class="track" x="24" y="52" width="452" height="10" rx="5" fill="#eaeef2"/>
<rect x="24" y="52" width="162" height="10" rx="5" fill="#4F5D95"/><rect x="29" y="52" width="157" height="10" fill="#4F5D95"/>
<rect x="188" y="52" width="138" height="10" fill="#00ADD8"/>
<rect x="328" y="52" width="82" height="10" fill="#292929"/>
<rect x="412" y="52" width="48" height="10" fill="#89E051"/>
<rect x="462" y="52" width="8" height="10" fill="#3572A5"/>
<rect x="472" y="52" width="7" height="10" fill="#CB171E"/>
<rect x="481" y="52" width="3" height="10" fill="#C1D026"/>
<rect x="486" y="52" width="2" height="10" fill="#F1E05A"/>
<rect x="490" y="52" width="2" height="10" rx="5" fill="#C6538C"/>
<circle cx="29" cy="90" r="4" fill="#4F5D95"/>
<text x="38" y="95" font-family="'Segoe UI',system-ui,sans-serif" font-size="12" fill="#24292f" class="legend-name">PHP</text>
<text x="166" y="95" text-anchor="end" font-family="'Segoe UI',system-ui,sans-serif" font-size="12" fill="#57606a" class="legend-pct">35.7%</text>
<circle cx="179" cy="90" r="4" fill="#00ADD8"/>
<text x="188" y="95" font-family="'Segoe UI',system-ui,sans-serif" font-size="12" fill="#24292f" class="legend-name">Go</text>
<text x="316" y="95" text-anchor="end" font-family="'Segoe UI',system-ui,sans-serif" font-size="12" fill="#57606a" class="legend-pct">30.5%</text>
<circle cx="329" cy="90" r="4" fill="#292929"/>
<text x="338" y="95" font-family="'Segoe UI',system-ui,sans-serif" font-size="12" fill="#24292f" class="legend-name">JSON</text>
<text x="466" y="95" text-anchor="end" font-family="'Segoe UI',system-ui,sans-serif" font-size="12" fill="#57606a" class="legend-pct">18.1%</text>
<circle cx="29" cy="114" r="4" fill="#89E051"/>
<text x="38" y="119" font-family="'Segoe UI',system-ui,sans-serif" font-size="12" fill="#24292f" class="legend-name">Shell</text>
<text x="166" y="119" text-anchor="end" font-family="'Segoe UI',system-ui,sans-serif" font-size="12" fill="#57606a" class="legend-pct">10.7%</text>
<circle cx="179" cy="114" r="4" fill="#3572A5"/>
<text x="188" y="119" font-family="'Segoe UI',system-ui,sans-serif" font-size="12" fill="#24292f" class="legend-name">Python</text>
<text x="316" y="119" text-anchor="end" font-family="'Segoe UI',system-ui,sans-serif" font-size="12" fill="#57606a" class="legend-pct">1.9%</text>
<circle cx="329" cy="114" r="4" fill="#CB171E"/>
<text x="338" y="119" font-family="'Segoe UI',system-ui,sans-serif" font-size="12" fill="#24292f" class="legend-name">YAML</text>
<text x="466" y="119" text-anchor="end" font-family="'Segoe UI',system-ui,sans-serif" font-size="12" fill="#57606a" class="legend-pct">1.5%</text>
<circle cx="29" cy="138" r="4" fill="#C1D026"/>
<text x="38" y="143" font-family="'Segoe UI',system-ui,sans-serif" font-size="12" fill="#24292f" class="legend-name">Twig</text>
<text x="166" y="143" text-anchor="end" font-family="'Segoe UI',system-ui,sans-serif" font-size="12" fill="#57606a" class="legend-pct">0.8%</text>
<circle cx="179" cy="138" r="4" fill="#F1E05A"/>
<text x="188" y="143" font-family="'Segoe UI',system-ui,sans-serif" font-size="12" fill="#24292f" class="legend-name">JavaScript</text>
<text x="316" y="143" text-anchor="end" font-family="'Segoe UI',system-ui,sans-serif" font-size="12" fill="#57606a" class="legend-pct">0.5%</text>
<circle cx="329" cy="138" r="4" fill="#C6538C"/>
<text x="338" y="143" font-family="'Segoe UI',system-ui,sans-serif" font-size="12" fill="#24292f" class="legend-name">SCSS</text>
<text x="466" y="143" text-anchor="end" font-family="'Segoe UI',system-ui,sans-serif" font-size="12" fill="#57606a" class="legend-pct">0.4%</text>
<text x="24" y="172" font-family="'Segoe UI',system-ui,sans-serif" font-size="11" fill="#8c959f" class="footer">Updated 2026-05-03 07:11 UTC</text>
</svg>