<svg width="500" height="218" viewBox="0 0 500 218" xmlns="http://www.w3.org/2000/svg" role="img" aria-label="GitHub language stats: Last 1000 commits · since 2026-05-04">
<rect width="500" height="218" rx="12" fill="#ffffff" stroke="#e1e4e8" stroke-width="1"/>
<style>
@media (prefers-color-scheme: dark) {
  .bg { fill: #161b22; stroke: #30363d; }
  .title { fill: #e6edf3; }
  .legend-name { fill: #e6edf3; }
  .legend-pct { fill: #8b949e; }
  .footer { fill: #8b949e; }
  .track { fill: #21262d; }
}
</style>
<rect class="bg" width="500" height="218" rx="12" fill="#ffffff" stroke="#e1e4e8" stroke-width="1"/>
<text x="24" y="30" font-family="'Segoe UI',system-ui,sans-serif" font-size="13" font-weight="500" fill="#57606a" class="title">📊 GitHub Stats · Last 1000 commits · since 2026-05-04</text>
<rect class="track" x="24" y="52" width="452" height="10" rx="5" fill="#eaeef2"/>
<rect x="24" y="52" width="194" height="10" rx="5" fill="#4F5D95"/><rect x="29" y="52" width="189" height="10" fill="#4F5D95"/>
<rect x="220" y="52" width="61" height="10" fill="#3572A5"/>
<rect x="283" y="52" width="59" height="10" fill="#00ADD8"/>
<rect x="344" y="52" width="49" height="10" fill="#F1E05A"/>
<rect x="395" y="52" width="25" height="10" fill="#89E051"/>
<rect x="422" y="52" width="20" height="10" fill="#083FA1"/>
<rect x="444" y="52" width="12" height="10" fill="#CB171E"/>
<rect x="458" y="52" width="11" height="10" fill="#292929"/>
<rect x="471" y="52" width="9" height="10" fill="#C1D026"/>
<rect x="482" y="52" width="9" height="10" fill="#3178C6"/>
<rect x="493" y="52" width="2" height="10" fill="#E38C00"/>
<rect x="497" y="52" width="2" height="10" rx="5" fill="#41B883"/>
<circle cx="29" cy="90" r="4" fill="#4F5D95"/>
<text x="38" y="95" font-family="'Segoe UI',system-ui,sans-serif" font-size="12" fill="#24292f" class="legend-name">PHP</text>
<text x="166" y="95" text-anchor="end" font-family="'Segoe UI',system-ui,sans-serif" font-size="12" fill="#57606a" class="legend-pct">42.9%</text>
<circle cx="179" cy="90" r="4" fill="#3572A5"/>
<text x="188" y="95" font-family="'Segoe UI',system-ui,sans-serif" font-size="12" fill="#24292f" class="legend-name">Python</text>
<text x="316" y="95" text-anchor="end" font-family="'Segoe UI',system-ui,sans-serif" font-size="12" fill="#57606a" class="legend-pct">13.6%</text>
<circle cx="329" cy="90" r="4" fill="#00ADD8"/>
<text x="338" y="95" font-family="'Segoe UI',system-ui,sans-serif" font-size="12" fill="#24292f" class="legend-name">Go</text>
<text x="466" y="95" text-anchor="end" font-family="'Segoe UI',system-ui,sans-serif" font-size="12" fill="#57606a" class="legend-pct">13.0%</text>
<circle cx="29" cy="114" r="4" fill="#F1E05A"/>
<text x="38" y="119" font-family="'Segoe UI',system-ui,sans-serif" font-size="12" fill="#24292f" class="legend-name">JavaScript</text>
<text x="166" y="119" text-anchor="end" font-family="'Segoe UI',system-ui,sans-serif" font-size="12" fill="#57606a" class="legend-pct">10.9%</text>
<circle cx="179" cy="114" r="4" fill="#89E051"/>
<text x="188" y="119" font-family="'Segoe UI',system-ui,sans-serif" font-size="12" fill="#24292f" class="legend-name">Shell</text>
<text x="316" y="119" text-anchor="end" font-family="'Segoe UI',system-ui,sans-serif" font-size="12" fill="#57606a" class="legend-pct">5.4%</text>
<circle cx="329" cy="114" r="4" fill="#083FA1"/>
<text x="338" y="119" font-family="'Segoe UI',system-ui,sans-serif" font-size="12" fill="#24292f" class="legend-name">Markdown</text>
<text x="466" y="119" text-anchor="end" font-family="'Segoe UI',system-ui,sans-serif" font-size="12" fill="#57606a" class="legend-pct">4.4%</text>
<circle cx="29" cy="138" r="4" fill="#CB171E"/>
<text x="38" y="143" font-family="'Segoe UI',system-ui,sans-serif" font-size="12" fill="#24292f" class="legend-name">YAML</text>
<text x="166" y="143" text-anchor="end" font-family="'Segoe UI',system-ui,sans-serif" font-size="12" fill="#57606a" class="legend-pct">2.7%</text>
<circle cx="179" cy="138" r="4" fill="#292929"/>
<text x="188" y="143" font-family="'Segoe UI',system-ui,sans-serif" font-size="12" fill="#24292f" class="legend-name">JSON</text>
<text x="316" y="143" text-anchor="end" font-family="'Segoe UI',system-ui,sans-serif" font-size="12" fill="#57606a" class="legend-pct">2.4%</text>
<circle cx="329" cy="138" r="4" fill="#C1D026"/>
<text x="338" y="143" font-family="'Segoe UI',system-ui,sans-serif" font-size="12" fill="#24292f" class="legend-name">Twig</text>
<text x="466" y="143" text-anchor="end" font-family="'Segoe UI',system-ui,sans-serif" font-size="12" fill="#57606a" class="legend-pct">2.0%</text>
<circle cx="29" cy="162" r="4" fill="#3178C6"/>
<text x="38" y="167" font-family="'Segoe UI',system-ui,sans-serif" font-size="12" fill="#24292f" class="legend-name">TypeScript</text>
<text x="166" y="167" text-anchor="end" font-family="'Segoe UI',system-ui,sans-serif" font-size="12" fill="#57606a" class="legend-pct">1.9%</text>
<circle cx="179" cy="162" r="4" fill="#E38C00"/>
<text x="188" y="167" font-family="'Segoe UI',system-ui,sans-serif" font-size="12" fill="#24292f" class="legend-name">SQL</text>
<text x="316" y="167" text-anchor="end" font-family="'Segoe UI',system-ui,sans-serif" font-size="12" fill="#57606a" class="legend-pct">0.3%</text>
<circle cx="329" cy="162" r="4" fill="#41B883"/>
<text x="338" y="167" font-family="'Segoe UI',system-ui,sans-serif" font-size="12" fill="#24292f" class="legend-name">Vue</text>
<text x="466" y="167" text-anchor="end" font-family="'Segoe UI',system-ui,sans-serif" font-size="12" fill="#57606a" class="legend-pct">0.3%</text>
<text x="24" y="196" font-family="'Segoe UI',system-ui,sans-serif" font-size="11" fill="#8c959f" class="footer">Updated 2026-10-08 03:13 UTC</text>
</svg>